# xmcd
#
# Track frame offsets:
#	150
#	13009
#	29065
#	42204
#	61766
#	75797
#	94178
#	102922
#	123457
#	136209
#	155420
#	173194
#
# Disc length: 2432 seconds
#
# Revision: 1
# Processed by: cddbd v1.5.2PL0 Copyright (c) Steve Scherf et al.
# Submitted via: audiograbber 1.83.01
#
DISCID=8f097e0c
DTITLE=Steve Wariner - All Over the Map
DYEAR=2016
DGENRE=Country
TTITLE0=Drop Top (feat. Jack Pearson)
TTITLE1=Meanwhile Back In Austin (feat. Eric Johnson)
TTITLE2=When I Still Mattered To You
TTITLE3=Nashville Spy-Line (feat. Duane Eddy)
TTITLE4=CGP (feat. Tommy Emmanuel and John Knowles)
TTITLE5=The Last Word (feat. Ryan Wariner)
TTITLE6=Mr. Roy
TTITLE7=Way It Goes (feat. Greg Martin)
TTITLE8=Down Sawmill Road (feat. Ricky Skaggs)
TTITLE9=Modulation Situation
TTITLE10=Girl Like You
TTITLE11=Augustine's Dream
EXTD=UPC: 8 26411 20162 7
EXTT0=
EXTT1=
EXTT2=
EXTT3=
EXTT4=
EXTT5=
EXTT6=
EXTT7=
EXTT8=
EXTT9=
EXTT10=
EXTT11=
PLAYORDER=
